<svg width="17" height="17" viewBox="0 0 20 20" fill="none" xmlns="http://www.w3.org/2000/svg">
<path fill-rule="evenodd" clip-rule="evenodd" d="M9.9999 1.04166C8.28704 1.04166 6.64434 1.72209 5.43317 2.93326C4.222 4.14443 3.54157 5.78713 3.54157 7.49999V8.08666C3.54152 8.6674 3.36957 9.23514 3.0474 9.71832L2.09157 11.1542C0.979901 12.8208 1.82823 15.0858 3.76073 15.6125C4.3899 15.7842 5.0249 15.9292 5.66407 16.0483L5.66573 16.0525C6.30573 17.7625 8.01823 18.9583 9.9999 18.9583C11.9816 18.9583 13.6941 17.7625 14.3349 16.0525L14.3366 16.0483C14.9767 15.9292 15.6117 15.7838 16.2399 15.6125C18.1724 15.0858 19.0207 12.8208 17.9091 11.1542L16.9524 9.71832C16.6302 9.23514 16.4583 8.6674 16.4582 8.08666V7.49999C16.4582 5.78713 15.7778 4.14443 14.5666 2.93326C13.3555 1.72209 11.7128 1.04166 9.9999 1.04166ZM12.8132 16.2808C10.944 16.5042 9.05492 16.5042 7.18573 16.2808C7.77823 17.1317 8.80907 17.7083 9.9999 17.7083C11.1907 17.7083 12.2207 17.1317 12.8132 16.2808ZM4.79157 7.49999C4.79157 6.11865 5.3403 4.79389 6.31705 3.81714C7.2938 2.84039 8.61856 2.29166 9.9999 2.29166C11.3812 2.29166 12.706 2.84039 13.6827 3.81714C14.6595 4.79389 15.2082 6.11865 15.2082 7.49999V8.08666C15.2082 8.91416 15.4532 9.72332 15.9124 10.4117L16.8691 11.8475C17.0173 12.0695 17.1106 12.3236 17.1413 12.5887C17.172 12.8539 17.1392 13.1226 17.0456 13.3726C16.952 13.6226 16.8002 13.8467 16.6029 14.0265C16.4056 14.2063 16.1683 14.3366 15.9107 14.4067C12.0406 15.4621 7.9584 15.4621 4.08823 14.4067C3.83087 14.3364 3.59388 14.2061 3.39677 14.0263C3.19965 13.8465 3.04806 13.6225 2.95448 13.3727C2.8609 13.1229 2.82801 12.8544 2.8585 12.5894C2.889 12.3243 2.98202 12.0704 3.1299 11.8483L4.08823 10.4117C4.54702 9.72306 4.79174 8.91409 4.79157 8.08666V7.49999Z" fill="currentColor"/>
</svg>
