<svg width="30" height="30" viewBox="0 0 18 18" fill="none" xmlns="http://www.w3.org/2000/svg">
<g clip-path="url(#clip0_2_1471)">
<path d="M9 13.2187C11.33 13.2187 13.2188 11.3299 13.2188 8.99997C13.2188 6.67002 11.33 4.78122 9 4.78122C6.67005 4.78122 4.78125 6.67002 4.78125 8.99997C4.78125 11.3299 6.67005 13.2187 9 13.2187Z" fill="currentColor"/>
<path d="M8.99982 3.09342C8.53345 3.09342 8.15607 2.71561 8.15607 2.24967V1.40622C8.15607 0.940278 8.53345 0.562469 8.99982 0.562469C9.46619 0.562469 9.84357 0.940278 9.84357 1.40622V2.24967C9.84357 2.71561 9.46619 3.09342 8.99982 3.09342Z" fill="currentColor"/>
<path d="M13.7734 5.07049C13.5575 5.07049 13.3416 4.9881 13.1768 4.8233C12.8472 4.49381 12.8472 3.95958 13.1768 3.63009L13.7734 3.03363C14.103 2.70424 14.6369 2.70414 14.9665 3.03373C15.2961 3.36322 15.2961 3.89745 14.9665 4.22694L14.3699 4.8234C14.2051 4.9881 13.9893 5.07049 13.7734 5.07049Z" fill="currentColor"/>
<path d="M16.5937 9.84372H15.75C15.2836 9.84372 14.9062 9.46591 14.9062 8.99997C14.9062 8.53403 15.2836 8.15622 15.75 8.15622H16.5937C17.0601 8.15622 17.4375 8.53403 17.4375 8.99997C17.4375 9.46591 17.0601 9.84372 16.5937 9.84372Z" fill="currentColor"/>
<path d="M14.3699 15.2133C14.1541 15.2133 13.9382 15.131 13.7734 14.9662L13.1768 14.3698C12.8472 14.0403 12.8472 13.5061 13.1768 13.1766C13.5064 12.847 14.0403 12.8469 14.3699 13.1765L14.9665 13.7729C15.2961 14.1024 15.2961 14.6366 14.9665 14.9661C14.8017 15.1309 14.5858 15.2133 14.3699 15.2133Z" fill="currentColor"/>
<path d="M8.99982 17.4374C8.53345 17.4374 8.15607 17.0596 8.15607 16.5937V15.7502C8.15607 15.2843 8.53345 14.9064 8.99982 14.9064C9.46619 14.9064 9.84357 15.2843 9.84357 15.7502V16.5937C9.84357 17.0596 9.46619 17.4374 8.99982 17.4374Z" fill="currentColor"/>
<path d="M3.63025 15.2133C3.41437 15.2133 3.19849 15.131 3.03369 14.9662C2.7041 14.6367 2.7041 14.1024 3.03369 13.7729L3.63025 13.1765C3.95984 12.8471 4.49377 12.847 4.82336 13.1766C5.15295 13.5061 5.15295 14.0403 4.82336 14.3698L4.22681 14.9663C4.06201 15.1309 3.84613 15.2133 3.63025 15.2133Z" fill="currentColor"/>
<path d="M2.25 9.84372H1.40625C0.93988 9.84372 0.5625 9.46591 0.5625 8.99997C0.5625 8.53403 0.93988 8.15622 1.40625 8.15622H2.25C2.71637 8.15622 3.09375 8.53403 3.09375 8.99997C3.09375 9.46591 2.71637 9.84372 2.25 9.84372Z" fill="currentColor"/>
<path d="M4.22681 5.07057C4.01093 5.07057 3.79504 4.98827 3.63025 4.82347L3.03369 4.22702C2.7041 3.89752 2.7041 3.36329 3.03369 3.0338C3.36328 2.70421 3.89722 2.70411 4.22681 3.0337L4.82336 3.63016C5.15295 3.95965 5.15295 4.49388 4.82336 4.82338C4.65857 4.98817 4.44269 5.07057 4.22681 5.07057Z" fill="currentColor"/>
</g>
<defs>
<clipPath id="clip0_2_1471">
<rect width="16.875" height="16.875" fill="currentColor" transform="translate(0.5625 0.562469)"/>
</clipPath>
</defs>
</svg>
