<svg width="20" height="20" viewBox="0 0 20 20" fill="none" xmlns="http://www.w3.org/2000/svg">
<path d="M2 9.79486C2 6.7007 2 5.15321 2.9376 4.19239C3.8744 3.23074 5.3832 3.23074 8.4 3.23074H11.6C14.6168 3.23074 16.1256 3.23074 17.0624 4.19239C18 5.15321 18 6.7007 18 9.79486V11.4359C18 14.53 18 16.0775 17.0624 17.0384C16.1256 18 14.6168 18 11.6 18H8.4C5.3832 18 3.8744 18 2.9376 17.0384C2 16.0775 2 14.53 2 11.4359V9.79486Z" stroke="currentColor" stroke-width="1.37144"/>
<path d="M5.99998 3.23077V2M14 3.23077V2M2.39998 7.33334H17.6" stroke="currentColor" stroke-width="1.37144" stroke-linecap="round"/>
<path d="M14.8003 13.8974C14.8003 14.115 14.716 14.3237 14.566 14.4776C14.416 14.6315 14.2125 14.7179 14.0003 14.7179C13.7882 14.7179 13.5847 14.6315 13.4346 14.4776C13.2846 14.3237 13.2003 14.115 13.2003 13.8974C13.2003 13.6798 13.2846 13.4711 13.4346 13.3172C13.5847 13.1633 13.7882 13.0769 14.0003 13.0769C14.2125 13.0769 14.416 13.1633 14.566 13.3172C14.716 13.4711 14.8003 13.6798 14.8003 13.8974ZM14.8003 10.6153C14.8003 10.833 14.716 11.0417 14.566 11.1955C14.416 11.3494 14.2125 11.4359 14.0003 11.4359C13.7882 11.4359 13.5847 11.3494 13.4346 11.1955C13.2846 11.0417 13.2003 10.833 13.2003 10.6153C13.2003 10.3977 13.2846 10.189 13.4346 10.0352C13.5847 9.88128 13.7882 9.79483 14.0003 9.79483C14.2125 9.79483 14.416 9.88128 14.566 10.0352C14.716 10.189 14.8003 10.3977 14.8003 10.6153ZM10.8003 13.8974C10.8003 14.115 10.716 14.3237 10.566 14.4776C10.416 14.6315 10.2125 14.7179 10.0003 14.7179C9.78816 14.7179 9.58468 14.6315 9.43465 14.4776C9.28462 14.3237 9.20033 14.115 9.20033 13.8974C9.20033 13.6798 9.28462 13.4711 9.43465 13.3172C9.58468 13.1633 9.78816 13.0769 10.0003 13.0769C10.2125 13.0769 10.416 13.1633 10.566 13.3172C10.716 13.4711 10.8003 13.6798 10.8003 13.8974ZM10.8003 10.6153C10.8003 10.833 10.716 11.0417 10.566 11.1955C10.416 11.3494 10.2125 11.4359 10.0003 11.4359C9.78816 11.4359 9.58468 11.3494 9.43465 11.1955C9.28462 11.0417 9.20033 10.833 9.20033 10.6153C9.20033 10.3977 9.28462 10.189 9.43465 10.0352C9.58468 9.88128 9.78816 9.79483 10.0003 9.79483C10.2125 9.79483 10.416 9.88128 10.566 10.0352C10.716 10.189 10.8003 10.3977 10.8003 10.6153ZM6.80033 13.8974C6.80033 14.115 6.71605 14.3237 6.56602 14.4776C6.41599 14.6315 6.21251 14.7179 6.00033 14.7179C5.78816 14.7179 5.58468 14.6315 5.43465 14.4776C5.28462 14.3237 5.20033 14.115 5.20033 13.8974C5.20033 13.6798 5.28462 13.4711 5.43465 13.3172C5.58468 13.1633 5.78816 13.0769 6.00033 13.0769C6.21251 13.0769 6.41599 13.1633 6.56602 13.3172C6.71605 13.4711 6.80033 13.6798 6.80033 13.8974ZM6.80033 10.6153C6.80033 10.833 6.71605 11.0417 6.56602 11.1955C6.41599 11.3494 6.21251 11.4359 6.00033 11.4359C5.78816 11.4359 5.58468 11.3494 5.43465 11.1955C5.28462 11.0417 5.20033 10.833 5.20033 10.6153C5.20033 10.3977 5.28462 10.189 5.43465 10.0352C5.58468 9.88128 5.78816 9.79483 6.00033 9.79483C6.21251 9.79483 6.41599 9.88128 6.56602 10.0352C6.71605 10.189 6.80033 10.3977 6.80033 10.6153Z" fill="currentColor"/>
</svg>
