<svg width="24" height="24" viewBox="0 0 24 24" fill="none" xmlns="http://www.w3.org/2000/svg">
<path d="M7.24 1.99997H5.34C3.15 1.99997 2 3.14997 2 5.32997V7.22997C2 9.40997 3.15 10.56 5.33 10.56H7.23C9.41 10.56 10.56 9.40997 10.56 7.22997V5.32997C10.57 3.14997 9.42 1.99997 7.24 1.99997Z" fill="currentColor"/>
<path opacity="0.4" d="M18.67 1.99997H16.77C14.59 1.99997 13.44 3.14997 13.44 5.32997V7.22997C13.44 9.40997 14.59 10.56 16.77 10.56H18.67C20.85 10.56 22 9.40997 22 7.22997V5.32997C22 3.14997 20.85 1.99997 18.67 1.99997Z" fill="currentColor"/>
<path d="M18.67 13.43H16.77C14.59 13.43 13.44 14.58 13.44 16.76V18.66C13.44 20.84 14.59 21.99 16.77 21.99H18.67C20.85 21.99 22 20.84 22 18.66V16.76C22 14.58 20.85 13.43 18.67 13.43Z" fill="currentColor"/>
<path opacity="0.4" d="M7.24 13.43H5.34C3.15 13.43 2 14.58 2 16.76V18.66C2 20.85 3.15 22 5.33 22H7.23C9.41 22 10.56 20.85 10.56 18.67V16.77C10.57 14.58 9.42 13.43 7.24 13.43Z" fill="currentColor"/>
</svg>
