<svg width="30" height="30" viewBox="0 0 30 30" fill="none" xmlns="http://www.w3.org/2000/svg">
<path d="M15 4.68747C15.2486 4.68747 15.4871 4.5887 15.6629 4.41288C15.8387 4.23707 15.9375 3.99861 15.9375 3.74997V2.81247C15.9375 2.56383 15.8387 2.32537 15.6629 2.14956C15.4871 1.97374 15.2486 1.87497 15 1.87497C14.7514 1.87497 14.5129 1.97374 14.3371 2.14956C14.1613 2.32537 14.0625 2.56383 14.0625 2.81247V3.74997C14.0625 3.99861 14.1613 4.23707 14.3371 4.41288C14.5129 4.5887 14.7514 4.68747 15 4.68747Z" fill="currentColor"/>
<path d="M15 25.3125C14.7514 25.3125 14.5129 25.4112 14.3371 25.5871C14.1613 25.7629 14.0625 26.0013 14.0625 26.25V27.1875C14.0625 27.4361 14.1613 27.6746 14.3371 27.8504C14.5129 28.0262 14.7514 28.125 15 28.125C15.2486 28.125 15.4871 28.0262 15.6629 27.8504C15.8387 27.6746 15.9375 27.4361 15.9375 27.1875V26.25C15.9375 26.0013 15.8387 25.7629 15.6629 25.5871C15.4871 25.4112 15.2486 25.3125 15 25.3125Z" fill="currentColor"/>
<path d="M27.1875 14.0625H26.25C26.0014 14.0625 25.7629 14.1612 25.5871 14.3371C25.4113 14.5129 25.3125 14.7513 25.3125 15C25.3125 15.2486 25.4113 15.4871 25.5871 15.6629C25.7629 15.8387 26.0014 15.9375 26.25 15.9375H27.1875C27.4361 15.9375 27.6746 15.8387 27.8504 15.6629C28.0262 15.4871 28.125 15.2486 28.125 15C28.125 14.7513 28.0262 14.5129 27.8504 14.3371C27.6746 14.1612 27.4361 14.0625 27.1875 14.0625Z" fill="currentColor"/>
<path d="M3.75 14.0625H2.8125C2.56386 14.0625 2.3254 14.1612 2.14959 14.3371C1.97377 14.5129 1.875 14.7513 1.875 15C1.875 15.2486 1.97377 15.4871 2.14959 15.6629C2.3254 15.8387 2.56386 15.9375 2.8125 15.9375H3.75C3.99864 15.9375 4.2371 15.8387 4.41291 15.6629C4.58873 15.4871 4.6875 15.2486 4.6875 15C4.6875 14.7513 4.58873 14.5129 4.41291 14.3371C4.2371 14.1612 3.99864 14.0625 3.75 14.0625Z" fill="currentColor"/>
<path d="M22.9549 5.7188L22.2921 6.38161C22.2025 6.4681 22.1311 6.57154 22.082 6.68592C22.0328 6.8003 22.007 6.92332 22.0059 7.0478C22.0048 7.17228 22.0285 7.29573 22.0757 7.41095C22.1228 7.52616 22.1924 7.63083 22.2804 7.71886C22.3685 7.80688 22.4731 7.8765 22.5884 7.92363C22.7036 7.97077 22.827 7.99449 22.9515 7.99341C23.076 7.99233 23.199 7.96647 23.3134 7.91733C23.4278 7.8682 23.5312 7.79678 23.6177 7.70724L24.2814 7.04536C24.3685 6.95826 24.4376 6.85485 24.4848 6.74105C24.5319 6.62724 24.5562 6.50527 24.5562 6.38208C24.5562 6.2589 24.5319 6.13692 24.4848 6.02312C24.4376 5.90931 24.3685 5.8059 24.2814 5.7188C24.1943 5.6317 24.0909 5.5626 23.9771 5.51546C23.8633 5.46832 23.7413 5.44406 23.6182 5.44406C23.495 5.44406 23.373 5.46832 23.2592 5.51546C23.1454 5.5626 23.042 5.6317 22.9549 5.7188Z" fill="currentColor"/>
<path d="M6.38185 22.2919L5.7181 22.9547C5.631 23.0418 5.5619 23.1452 5.51476 23.259C5.46762 23.3728 5.44336 23.4948 5.44336 23.618C5.44336 23.7412 5.46762 23.8631 5.51476 23.977C5.5619 24.0908 5.631 24.1942 5.7181 24.2813C5.89401 24.4572 6.1326 24.556 6.38138 24.556C6.50456 24.556 6.62654 24.5317 6.74035 24.4846C6.85415 24.4375 6.95756 24.3684 7.04466 24.2813L7.70747 23.6185C7.79458 23.5314 7.86368 23.4281 7.91085 23.3143C7.95801 23.2006 7.98231 23.0786 7.98235 22.9555C7.9824 22.8324 7.95819 22.7104 7.9111 22.5966C7.86402 22.4829 7.79499 22.3795 7.70794 22.2924C7.6209 22.2053 7.51756 22.1362 7.40381 22.089C7.29006 22.0418 7.16813 22.0175 7.04499 22.0175C6.7963 22.0174 6.55776 22.1161 6.38185 22.2919Z" fill="currentColor"/>
<path d="M23.617 22.2919C23.4402 22.1212 23.2034 22.0267 22.9576 22.0288C22.7117 22.0309 22.4766 22.1295 22.3028 22.3034C22.129 22.4772 22.0304 22.7123 22.0282 22.9581C22.0261 23.2039 22.1206 23.4408 22.2914 23.6176L22.9542 24.2813C23.1301 24.4572 23.3687 24.5561 23.6175 24.5561C23.8662 24.5561 24.1048 24.4572 24.2807 24.2813C24.4567 24.1054 24.5555 23.8668 24.5555 23.618C24.5555 23.3693 24.4567 23.1307 24.2807 22.9548L23.617 22.2919Z" fill="currentColor"/>
<path d="M6.38185 7.70818C6.55866 7.87895 6.79548 7.97344 7.04129 7.97131C7.2871 7.96917 7.52223 7.87058 7.69605 7.69676C7.86987 7.52294 7.96847 7.2878 7.97061 7.04199C7.97274 6.79618 7.87825 6.55937 7.70747 6.38255L7.04466 5.7188C6.86875 5.54289 6.63016 5.44406 6.38138 5.44406C6.1326 5.44406 5.89401 5.54289 5.7181 5.7188C5.54219 5.89471 5.44336 6.1333 5.44336 6.38208C5.44336 6.63086 5.54219 6.86945 5.7181 7.04536L6.38185 7.70818Z" fill="currentColor"/>
<path d="M23.1565 16.3903C23.0356 16.2709 22.8845 16.1866 22.7193 16.1465C22.5542 16.1064 22.3813 16.1119 22.219 16.1624C21.59 16.3567 20.9349 16.4541 20.2765 16.4512C18.4925 16.4495 16.782 15.74 15.5204 14.4786C14.2588 13.2172 13.5491 11.5068 13.5472 9.72275C13.5449 9.06456 13.6429 8.40986 13.8378 7.78119C13.8887 7.61878 13.8944 7.44557 13.8543 7.28015C13.8142 7.11474 13.7299 6.96335 13.6103 6.84223C13.4907 6.72111 13.3404 6.63483 13.1756 6.59264C13.0107 6.55045 12.8374 6.55395 12.6743 6.60275C11.2512 7.03311 9.96389 7.82498 8.93797 8.90111C7.91206 9.97723 7.18257 11.3009 6.82065 12.743C6.45873 14.185 6.47674 15.6963 6.87293 17.1293C7.26912 18.5624 8.02996 19.8682 9.08124 20.9196C10.1325 21.971 11.4383 22.7319 12.8713 23.1283C14.3043 23.5246 15.8156 23.5427 17.2577 23.1809C18.6998 22.8191 20.0235 22.0898 21.0997 21.0639C22.176 20.0381 22.9679 18.7509 23.3984 17.3278C23.4472 17.1643 23.4505 16.9906 23.4079 16.8254C23.3652 16.6602 23.2783 16.5097 23.1565 16.3903Z" fill="currentColor"/>
</svg>
