<svg width="24" height="24" viewBox="0 0 24 24" fill="none" xmlns="http://www.w3.org/2000/svg">
<path d="M12.68 3.95997C13.16 4.66997 13.44 5.51997 13.44 6.43997C13.43 8.83997 11.54 10.79 9.16 10.87C9.06 10.86 8.94 10.86 8.83 10.87C6.45 10.79 4.56 8.83997 4.56 6.43997C4.56 3.98997 6.54 1.99997 9 1.99997" stroke="currentColor" stroke-width="1.5" stroke-linecap="round" stroke-linejoin="round"/>
<path d="M16.41 3.99997C18.35 3.99997 19.91 5.56997 19.91 7.49997C19.91 9.38997 18.41 10.93 16.54 11C16.46 10.99 16.37 10.99 16.28 11" stroke="currentColor" stroke-width="1.5" stroke-linecap="round" stroke-linejoin="round"/>
<path d="M4.15997 14.56C1.73997 16.18 1.73997 18.82 4.15997 20.43C6.90997 22.27 11.42 22.27 14.17 20.43C16.59 18.81 16.59 16.17 14.17 14.56C11.43 12.73 6.91997 12.73 4.15997 14.56Z" stroke="currentColor" stroke-width="1.5" stroke-linecap="round" stroke-linejoin="round"/>
<path d="M18.34 20C19.06 19.85 19.74 19.56 20.3 19.13C21.86 17.96 21.86 16.03 20.3 14.86C19.75 14.44 19.08 14.16 18.37 14" stroke="currentColor" stroke-width="1.5" stroke-linecap="round" stroke-linejoin="round"/>
</svg>
